<svg id="visual" viewBox="0 0 1400 400" width="1400" height="400" xmlns="http://www.w3.org/2000/svg" xmlns:xlink="http://www.w3.org/1999/xlink" version="1.1"><rect x="0" y="0" width="1400" height="400" fill="#008395"></rect><path d="M0 307L156 277L311 294L467 281L622 264L778 269L933 301L1089 297L1244 262L1400 267L1400 401L1244 401L1089 401L933 401L778 401L622 401L467 401L311 401L156 401L0 401Z" fill="#ffc4d9"></path><path d="M0 281L156 322L311 291L467 285L622 301L778 291L933 300L1089 283L1244 289L1400 324L1400 401L1244 401L1089 401L933 401L778 401L622 401L467 401L311 401L156 401L0 401Z" fill="#ffbbd3"></path><path d="M0 290L156 293L311 329L467 335L622 335L778 311L933 327L1089 297L1244 293L1400 300L1400 401L1244 401L1089 401L933 401L778 401L622 401L467 401L311 401L156 401L0 401Z" fill="#ffb2cd"></path><path d="M0 342L156 337L311 329L467 312L622 332L778 315L933 316L1089 313L1244 307L1400 337L1400 401L1244 401L1089 401L933 401L778 401L622 401L467 401L311 401L156 401L0 401Z" fill="#ffa8c7"></path><path d="M0 349L156 320L311 333L467 319L622 323L778 325L933 327L1089 321L1244 322L1400 319L1400 401L1244 401L1089 401L933 401L778 401L622 401L467 401L311 401L156 401L0 401Z" fill="#ff9fc1"></path><path d="M0 341L156 343L311 356L467 331L622 352L778 358L933 332L1089 344L1244 340L1400 333L1400 401L1244 401L1089 401L933 401L778 401L622 401L467 401L311 401L156 401L0 401Z" fill="#ff95bb"></path><path d="M0 373L156 367L311 345L467 355L622 353L778 354L933 346L1089 369L1244 355L1400 360L1400 401L1244 401L1089 401L933 401L778 401L622 401L467 401L311 401L156 401L0 401Z" fill="#ff8cb5"></path><path d="M0 379L156 371L311 372L467 382L622 372L778 381L933 363L1089 378L1244 376L1400 366L1400 401L1244 401L1089 401L933 401L778 401L622 401L467 401L311 401L156 401L0 401Z" fill="#ff82ae"></path><path d="M0 374L156 388L311 380L467 386L622 377L778 379L933 383L1089 390L1244 387L1400 378L1400 401L1244 401L1089 401L933 401L778 401L622 401L467 401L311 401L156 401L0 401Z" fill="#ff77a8"></path></svg>