<svg id="visual" viewBox="0 0 1400 400" width="1400" height="400" xmlns="http://www.w3.org/2000/svg" xmlns:xlink="http://www.w3.org/1999/xlink" version="1.1"><rect x="0" y="0" width="1400" height="400" fill="#008395"></rect><path d="M0 274L93 276L187 266L280 269L373 269L467 274L560 307L653 312L747 293L840 274L933 311L1027 288L1120 292L1213 267L1307 269L1400 301L1400 401L1307 401L1213 401L1120 401L1027 401L933 401L840 401L747 401L653 401L560 401L467 401L373 401L280 401L187 401L93 401L0 401Z" fill="#ffc4d9"></path><path d="M0 304L93 311L187 323L280 286L373 300L467 309L560 327L653 307L747 302L840 321L933 310L1027 289L1120 318L1213 318L1307 310L1400 299L1400 401L1307 401L1213 401L1120 401L1027 401L933 401L840 401L747 401L653 401L560 401L467 401L373 401L280 401L187 401L93 401L0 401Z" fill="#ffb5d0"></path><path d="M0 329L93 340L187 338L280 329L373 337L467 310L560 325L653 321L747 320L840 343L933 343L1027 308L1120 324L1213 309L1307 340L1400 324L1400 401L1307 401L1213 401L1120 401L1027 401L933 401L840 401L747 401L653 401L560 401L467 401L373 401L280 401L187 401L93 401L0 401Z" fill="#ffa7c6"></path><path d="M0 335L93 350L187 341L280 346L373 356L467 344L560 352L653 349L747 346L840 348L933 333L1027 329L1120 347L1213 340L1307 341L1400 331L1400 401L1307 401L1213 401L1120 401L1027 401L933 401L840 401L747 401L653 401L560 401L467 401L373 401L280 401L187 401L93 401L0 401Z" fill="#ff97bc"></path><path d="M0 366L93 366L187 373L280 367L373 364L467 352L560 350L653 347L747 346L840 372L933 373L1027 371L1120 355L1213 348L1307 357L1400 352L1400 401L1307 401L1213 401L1120 401L1027 401L933 401L840 401L747 401L653 401L560 401L467 401L373 401L280 401L187 401L93 401L0 401Z" fill="#ff88b2"></path><path d="M0 368L93 377L187 367L280 381L373 377L467 378L560 380L653 372L747 374L840 377L933 386L1027 379L1120 378L1213 367L1307 366L1400 381L1400 401L1307 401L1213 401L1120 401L1027 401L933 401L840 401L747 401L653 401L560 401L467 401L373 401L280 401L187 401L93 401L0 401Z" fill="#ff77a8"></path></svg>